<svg width="39" height="28" xmlns="http://www.w3.org/2000/svg" fill="none">
 <defs>
  <linearGradient y2="1" x2="0.5" y1="0" x1="0.5" id="paint0_linear">
   <stop stop-color="#FFD800"/>
   <stop stop-opacity="0.64" stop-color="#FF6B00" offset="1"/>
  </linearGradient>
  <linearGradient y2="1" x2="0.5" y1="0.4" x1="0.5" id="paint1_linear">
   <stop stop-color="#0094FF"/>
   <stop stop-color="white" offset="1"/>
  </linearGradient>
 </defs>
 <g>
  <title>Layer 1</title>
  <circle id="svg_2" fill="url(#paint0_linear)" r="12" cy="12" cx="12"/>
  <path id="svg_3" fill-opacity="0.8" fill="url(#paint1_linear)" d="m13.5,27l-0.5,0c-3.31371,0 -6,-2.6863 -6,-6c0,-0.0821 0.00165,-0.1637 0.00491,-0.245c-0.00326,-0.0846 -0.00491,-0.1696 -0.00491,-0.255c0,-3.5899 2.91015,-6.5 6.5,-6.5c0.9308,0 1.816,0.1957 2.6165,0.5481c0.6942,-4.2802 4.4072,-7.5481 8.8835,-7.5481c4.6584,0 8.4901,3.5391 8.9531,8.0753c2.8607,0.4566 5.0469,2.9353 5.0469,5.9247c0,3.3137 -2.6863,6 -6,6l-19.5,0z" clip-rule="evenodd" fill-rule="evenodd"/>
 </g>
</svg>